<?xml version="1.0" encoding="utf-8" ?>
<svg xmlns="http://www.w3.org/2000/svg" xmlns:xlink="http://www.w3.org/1999/xlink" width="512" height="512">
	<path fill="white" d="M0 0L512 0L512 512L0 512L0 0Z"/>
	<defs>
		<linearGradient id="gradient_0" gradientUnits="userSpaceOnUse" x1="256" y1="70.361923" x2="256" y2="505.19064">
			<stop offset="0" stop-color="#1F3BDB"/>
			<stop offset="1" stop-color="#030E4E"/>
		</linearGradient>
	</defs>
	<path fill="url(#gradient_0)" d="M0 0L512 0L512 512L0 512L0 0Z"/>
	<path fill="white" transform="translate(246.646 64)" d="M0 192C0 257.14636 3.3923829 321.24377 9.9512196 384C16.508331 321.24377 19.902439 257.14636 19.902439 192C19.902439 126.85195 16.508331 62.756237 9.9512196 0C3.3923829 62.756237 0 126.85195 0 192" fill-rule="evenodd"/>
	<path fill="white" transform="translate(177.573 169.366)" d="M30.602522 113.71745C30.102978 107.11631 29.525539 100.50336 28.834646 93.873535C25.483475 61.79229 19.964792 30.460062 12.442858 0C11.376037 31.349098 12.451324 63.143559 15.800803 95.224808C17.130096 107.93787 18.803143 120.53453 20.799622 133.00635C14.698422 112.9988 7.7505388 93.45517 0 74.407509C3.4561613 105.58622 9.0967655 136.89651 17.030188 168.16801C24.961916 199.43951 34.932461 229.66003 46.760624 258.73172C44.07156 234.47128 40.058281 210.1282 34.675068 185.79018C33.305134 179.60573 32.570213 173.30148 32.582066 166.97026C32.583759 166.42874 32.583759 165.88722 32.582066 165.3457C32.565132 155.86658 33.565914 146.42119 35.274521 137.09727C40.783039 107.04714 45.009686 77.185959 48.000168 47.626743C41.577229 69.218369 35.80793 91.290779 30.602522 113.71745" fill-rule="evenodd"/>
	<path fill="white" transform="translate(286.451 169.366)" d="M27.200451 133.00548C29.198618 120.53374 30.871658 107.93885 32.199253 95.22419C35.550411 63.143147 36.624004 31.350582 35.557186 0C28.036972 30.459864 22.518309 61.793575 19.167149 93.874611C18.474564 100.5027 17.898821 107.11561 17.400974 113.71671C12.19389 91.290184 6.4263034 69.219604 0 47.62812C2.9921682 77.187141 7.2187963 107.04645 12.725605 137.0947C14.434206 146.42024 15.434982 155.86557 15.418049 165.34294C15.416355 165.88614 15.416355 166.42766 15.418049 166.97086C15.429902 173.30205 14.694983 179.60625 13.326748 185.78897C7.9418612 210.12852 3.93029 234.47145 1.2412333 258.73172C13.067664 229.66022 23.039864 199.43822 30.973259 168.16861C38.904961 136.89731 44.54385 105.58553 48 74.407021C40.251183 93.454559 33.303322 112.99806 27.200451 133.00548" fill-rule="evenodd"/>
</svg>
