<?xml version="1.0" encoding="UTF-8"?>
<svg id="Livello_2" data-name="Livello 2" xmlns="http://www.w3.org/2000/svg" viewBox="0 0 478.62 307.61">
  <defs>
    <style>
      .cls-1 {
        fill: #000627;
      }
    </style>
  </defs>
  <g id="Livello_1-2" data-name="Livello 1">
    <g>
      <path class="cls-1" d="M0,249.06v-.18c0-17.86,13.35-32.65,31.93-32.65,11.45,0,18.31,4.06,24.62,10.01l-4.87,5.23c-5.32-5.05-11.27-8.66-19.84-8.66-13.98,0-24.44,11.36-24.44,25.89v.18c0,14.61,10.55,26.07,24.44,26.07,8.66,0,14.34-3.34,20.38-9.11l4.69,4.6c-6.58,6.67-13.8,11.09-25.25,11.09-18.22,0-31.66-14.34-31.66-32.47ZM78.28,217.31h7.13v28.05h36.44v-28.05h7.12v63.13h-7.12v-28.41h-36.44v28.41h-7.13v-63.13ZM156.02,217.31h7.13v63.13h-7.13v-63.13ZM190.2,217.31h7.22l23,34.45,23-34.45h7.22v63.13h-7.13v-51.14l-23,33.82h-.36l-23-33.73v51.05h-6.94v-63.13ZM277.05,217.31h45.64v6.49h-38.51v21.56h34.45v6.49h-34.45v22.1h38.96v6.49h-46.09v-63.13ZM346.04,217.31h27.15c7.76,0,13.98,2.34,17.95,6.31,3.07,3.07,4.87,7.49,4.87,12.45v.18c0,10.46-7.22,16.6-17.14,18.4l19.39,25.79h-8.75l-18.31-24.53h-18.04v24.53h-7.13v-63.13ZM372.56,249.51c9.47,0,16.23-4.87,16.23-12.99v-.18c0-7.76-5.95-12.45-16.14-12.45h-19.48v25.61h19.39ZM443.18,216.86h6.67l28.77,63.58h-7.67l-7.4-16.69h-34.36l-7.49,16.69h-7.31l28.77-63.58ZM460.76,257.36l-14.34-32.2-14.43,32.2h28.77Z"/>
      <path class="cls-1" d="M234.58,92.87c0,31.51,1.61,62.52,4.71,92.87,3.11-30.36,4.71-61.36,4.71-92.87s-1.61-62.52-4.71-92.87c-3.11,30.36-4.71,61.36-4.71,92.87ZM216.23,106.16c-.24-3.2-.52-6.4-.85-9.61-1.62-15.54-4.28-30.71-7.91-45.47-.52,15.18,0,30.58,1.62,46.12.64,6.16,1.45,12.26,2.41,18.3-2.94-9.69-6.3-19.16-10.04-28.38,1.67,15.1,4.39,30.27,8.22,45.41,3.83,15.15,8.64,29.78,14.35,43.86-1.3-11.75-3.23-23.54-5.83-35.33-.66-2.99-1.02-6.05-1.01-9.11,0-.26,0-.52,0-.79,0-4.59.47-9.17,1.3-13.68,2.66-14.55,4.7-29.02,6.14-43.33-3.1,10.46-5.88,21.15-8.39,32.01ZM267.12,115.5c.96-6.04,1.77-12.14,2.41-18.3,1.62-15.54,2.14-30.94,1.62-46.12-3.63,14.75-6.29,29.93-7.91,45.47-.33,3.21-.61,6.41-.85,9.61-2.51-10.86-5.3-21.55-8.4-32.01,1.44,14.32,3.48,28.78,6.14,43.33.82,4.52,1.31,9.09,1.3,13.68,0,.26,0,.53,0,.79,0,3.07-.35,6.12-1.01,9.11-2.6,11.79-4.53,23.58-5.83,35.33,5.71-14.08,10.52-28.72,14.35-43.86,3.83-15.15,6.55-30.31,8.22-45.41-3.74,9.22-7.09,18.69-10.04,28.38Z"/>
      <g>
        <path class="cls-1" d="M139.43,293.25h3.36l2.95,9.66,3.2-9.7h2.69l3.2,9.7,2.95-9.66h3.28l-4.87,14.36h-2.73l-3.22-9.33-3.22,9.33h-2.73l-4.87-14.36Z"/>
        <path class="cls-1" d="M188.81,293.15h2.89l6.11,14.36h-3.28l-1.3-3.2h-6.03l-1.3,3.2h-3.2l6.11-14.36ZM192.11,301.54l-1.89-4.62-1.89,4.62h3.79Z"/>
        <path class="cls-1" d="M222.39,293.25h3.14v11.41h7.11v2.85h-10.25v-14.26Z"/>
        <path class="cls-1" d="M257.38,293.25h3.14v11.41h7.11v2.85h-10.25v-14.26Z"/>
        <path class="cls-1" d="M292.37,293.25h10.76v2.79h-7.64v2.89h6.72v2.79h-6.72v3h7.74v2.79h-10.86v-14.26Z"/>
        <path class="cls-1" d="M331.71,296.15h-4.34v-2.89h11.81v2.89h-4.34v11.37h-3.14v-11.37Z"/>
      </g>
    </g>
  </g>
</svg>