<?xml version="1.0" encoding="utf-8" ?>
<svg xmlns="http://www.w3.org/2000/svg" xmlns:xlink="http://www.w3.org/1999/xlink" width="40" height="40">
	<path fill="#1F3BDB" d="M40 20Q40 20.490973 39.975914 20.981354Q39.95182 21.471735 39.903698 21.960344Q39.855572 22.448952 39.783527 22.934608Q39.711487 23.420265 39.615704 23.901806Q39.51992 24.383343 39.40062 24.859602Q39.281326 25.335861 39.138805 25.805693Q38.996284 26.275524 38.830879 26.737797Q38.665474 27.200066 38.477589 27.653666Q38.289703 28.107265 38.079784 28.551098Q37.869865 28.994932 37.638424 29.427933Q37.406982 29.860931 37.154568 30.282051Q36.902157 30.703171 36.629387 31.111401Q36.356617 31.51963 36.064148 31.913982Q35.771675 32.308334 35.460209 32.687862Q35.148739 33.06739 34.819019 33.431175Q34.489304 33.794964 34.142136 34.142136Q33.794964 34.489304 33.431179 34.819023Q33.06739 35.148743 32.687866 35.460213Q32.308338 35.771683 31.913984 36.064152Q31.51963 36.356621 31.111401 36.629391Q30.703171 36.902161 30.282051 37.154572Q29.860931 37.406982 29.427933 37.638424Q28.994932 37.869865 28.5511 38.079784Q28.107265 38.289703 27.653667 38.477589Q27.200068 38.665474 26.737795 38.830879Q26.275524 38.996284 25.805693 39.138805Q25.335861 39.281326 24.859602 39.400627Q24.383343 39.51992 23.901806 39.615707Q23.420265 39.711491 22.934608 39.783531Q22.448952 39.855576 21.960344 39.903698Q21.471735 39.95182 20.981354 39.97591Q20.490973 40 20 40Q19.509027 40 19.018646 39.97591Q18.528265 39.95182 18.039658 39.903698Q17.551048 39.855572 17.06539 39.783527Q16.579731 39.711487 16.098192 39.615704Q15.616653 39.51992 15.140394 39.40062Q14.664137 39.281326 14.194306 39.138805Q13.724474 38.996284 13.262202 38.830879Q12.79993 38.665474 12.346331 38.477589Q11.892731 38.289703 11.448898 38.079784Q11.005064 37.869865 10.572065 37.638424Q10.139067 37.406982 9.7179451 37.154568Q9.2968235 36.902157 8.8885946 36.629387Q8.4803658 36.356617 8.0860128 36.064148Q7.6916609 35.771675 7.3121338 35.460209Q6.9326067 35.148739 6.56882 34.819019Q6.2050338 34.489304 5.8578639 34.142136Q5.510694 33.794964 5.1809769 33.431179Q4.8512602 33.06739 4.5397906 32.687866Q4.2283211 32.308338 3.9358487 31.913984Q3.6433768 31.51963 3.3706071 31.111401Q3.0978374 30.703171 2.845427 30.282051Q2.5930171 29.860931 2.3615744 29.427933Q2.1301317 28.994932 1.9202138 28.5511Q1.7102962 28.107265 1.5224091 27.653667Q1.334522 27.200068 1.1691184 26.737795Q1.0037149 26.275524 0.86119318 25.805693Q0.71867144 25.335861 0.59937489 24.859602Q0.48007828 24.383343 0.38429433 23.901806Q0.28851038 23.420265 0.21646976 22.934608Q0.14442916 22.448952 0.09630546 21.960344Q0.048181746 21.471735 0.024090873 20.981354Q0 20.490973 0 20Q0 19.509027 0.024090873 19.018646Q0.048181746 18.528265 0.09630546 18.039658Q0.14442916 17.551048 0.21646976 17.06539Q0.28851038 16.579731 0.38429433 16.098192Q0.48007828 15.616653 0.59937483 15.140394Q0.71867144 14.664137 0.86119318 14.194306Q1.0037149 13.724474 1.1691185 13.262202Q1.334522 12.79993 1.5224091 12.346331Q1.7102962 11.892731 1.9202138 11.448898Q2.1301317 11.005064 2.3615744 10.572065Q2.5930171 10.139067 2.8454275 9.7179451Q3.0978374 9.2968235 3.3706071 8.8885946Q3.6433768 8.4803658 3.9358487 8.0860128Q4.2283211 7.6916609 4.5397906 7.3121338Q4.8512602 6.9326067 5.1809769 6.56882Q5.510694 6.2050338 5.8578639 5.8578639Q6.2050338 5.510694 6.56882 5.1809769Q6.9326072 4.8512602 7.3121343 4.5397906Q7.6916609 4.2283211 8.0860138 3.9358487Q8.4803658 3.6433768 8.8885946 3.3706071Q9.2968235 3.0978374 9.7179451 2.845427Q10.139067 2.5930171 10.572065 2.3615744Q11.005064 2.1301317 11.448896 1.9202138Q11.892731 1.7102962 12.34633 1.5224091Q12.799929 1.334522 13.262201 1.1691184Q13.724474 1.0037149 14.194306 0.86119318Q14.664138 0.71867144 15.140396 0.59937489Q15.616655 0.48007828 16.098194 0.38429433Q16.579731 0.28851038 17.06539 0.21646976Q17.551048 0.14442916 18.039658 0.09630546Q18.528265 0.048181746 19.018646 0.024090873Q19.509027 0 20 0Q20.490973 0 20.981354 0.024090873Q21.471735 0.048181746 21.960344 0.09630546Q22.448952 0.14442916 22.934608 0.21646976Q23.420265 0.28851038 23.901806 0.38429433Q24.383343 0.48007828 24.859602 0.59937483Q25.335861 0.71867144 25.805693 0.86119318Q26.275524 1.0037149 26.737797 1.1691185Q27.200066 1.334522 27.653666 1.5224091Q28.107265 1.7102962 28.551098 1.9202138Q28.994932 2.1301317 29.427933 2.3615744Q29.860931 2.5930171 30.282051 2.8454275Q30.703171 3.0978374 31.111401 3.3706071Q31.51963 3.6433768 31.913982 3.9358487Q32.308334 4.2283211 32.687862 4.5397906Q33.06739 4.8512602 33.431175 5.1809769Q33.794964 5.510694 34.142136 5.8578639Q34.489304 6.2050338 34.819023 6.56882Q35.148743 6.9326072 35.460213 7.3121343Q35.771683 7.6916609 36.064152 8.0860138Q36.356621 8.4803658 36.629391 8.8885946Q36.902161 9.2968235 37.154572 9.7179451Q37.406982 10.139067 37.638424 10.572065Q37.869865 11.005064 38.079784 11.448896Q38.289703 11.892731 38.477589 12.34633Q38.665474 12.799929 38.830879 13.262201Q38.996284 13.724474 39.138805 14.194306Q39.281326 14.664138 39.400627 15.140396Q39.51992 15.616655 39.615707 16.098194Q39.711491 16.579731 39.783531 17.06539Q39.855576 17.551048 39.903698 18.039658Q39.95182 18.528265 39.975914 19.018646Q40 19.509027 40 20Z"/>
	<path fill="white" transform="translate(10 10.0122)" d="M10.161976 0.0070997141C10.271743 0.016746707 10.328712 0.027874697 10.534537 0.073679544L18.071547 1.750851C18.776783 1.9077586 18.949135 1.9596367 19.230967 2.1630075C19.503578 2.3596399 19.717587 2.6267805 19.84976 2.9353044C19.986834 3.2547224 20 3.4341104 20 4.157279L20 5.29602C20 6.177403 19.982969 6.3861232 19.798317 6.748991C19.620834 7.0976944 19.337702 7.3812585 18.989296 7.5589981C18.693781 7.7097783 18.500547 7.7490768 17.962963 7.7584543L17.962963 14.256467C18.500559 14.265845 18.693796 14.305147 18.989311 14.455941C19.337688 14.633703 19.620785 14.917232 19.798344 15.265972C19.982967 15.628769 20 15.837513 20 16.718901L20 17.534822C20 18.41625 19.982971 18.62495 19.798349 18.98774C19.620831 19.336586 19.337597 19.620253 18.989323 19.797775C18.626478 19.982927 18.417828 20 17.537037 20L2.4629629 20C1.5822173 20 1.3735456 19.982925 1.0109482 19.797909C0.66238481 19.620201 0.37908715 19.336517 0.20163222 18.987724C0.017027415 18.624933 0 18.416241 0 17.534822L0 16.718901C0 15.837523 0.017029829 15.628786 0.20168969 15.265886C0.37913346 14.917299 0.66229373 14.633755 1.0107011 14.45594C1.3062223 14.30515 1.4994745 14.265846 2.0370371 14.256467L2.0370371 7.7584538C1.4994857 7.7490754 1.3062347 7.709774 1.0106974 7.558989C0.66228056 7.3812065 0.37908444 7.0976257 0.20162508 6.7488971C0.017028926 6.386106 0 6.1773915 0 5.29602L0 4.157269C0 3.4341621 0.013154992 3.2548084 0.15011998 2.9354653C0.28257588 2.6266303 0.49646461 2.3596191 0.76896894 2.1630242C1.0509392 1.959627 1.2232199 1.9077741 1.9284352 1.7508572L9.4654617 0.073679596C9.6712885 0.027874697 9.7282572 0.016746707 9.8381386 0.0070896656C9.9458847 -0.002364896 10.054115 -0.002364896 10.161976 0.0070997141ZM2.4629629 15.920391C1.9176502 15.920391 1.7866379 15.93111 1.7682747 15.94048C1.7333682 15.958296 1.7048821 15.98682 1.6870511 16.021849C1.6773939 16.040827 1.6666666 16.172314 1.6666666 16.718901L1.6666666 17.534822C1.6666666 18.081472 1.6773889 18.212885 1.6870748 18.23192C1.7049284 18.267014 1.7332771 18.295401 1.7682083 18.31321C1.7866379 18.322613 1.9176502 18.333332 2.4629629 18.333332L17.537037 18.333332C18.082375 18.333332 18.213371 18.322615 18.232113 18.313051C18.266729 18.295404 18.295034 18.267057 18.312952 18.231846C18.322611 18.212868 18.333334 18.081461 18.333334 17.534822L18.333334 16.718901C18.333334 16.172325 18.322605 16.040846 18.313028 16.022024C18.295082 15.986776 18.26664 15.95829 18.231789 15.940507C18.213371 15.931109 18.082375 15.920391 17.537037 15.920391L2.4629629 15.920391ZM3.7037036 7.7611961L3.7037036 14.253724L6.6203704 14.253724L6.6203704 7.7611961L3.7037036 7.7611961ZM8.2870369 7.7611961L8.2870369 14.253724L11.712963 14.253724L11.712963 7.7611961L8.2870369 7.7611961ZM13.37963 7.7611961L13.37963 14.253724L16.296297 14.253724L16.296297 7.7611961L13.37963 7.7611961ZM9.9839392 1.6673667C9.9770899 1.6679686 9.9510355 1.6730579 9.8274946 1.7005508L2.2904432 3.3777339C1.8574537 3.4740782 1.7594595 3.5035725 1.7440474 3.5146899C1.7167277 3.5343993 1.6952119 3.561259 1.6818502 3.5924129C1.6741753 3.6103075 1.6666666 3.7126796 1.6666666 4.157269L1.6666666 5.29602C1.6666666 5.8426437 1.6773901 5.9740744 1.6870424 5.9930444C1.70491 6.0281563 1.7333398 6.0566249 1.7681807 6.0744028C1.7866206 6.0838108 1.917639 6.0945296 2.4629629 6.0945296L17.537037 6.0945296C18.082386 6.0945296 18.213388 6.0838122 18.231863 6.0743861C18.266666 6.0566301 18.295053 6.0282006 18.312946 5.9930482C18.322609 5.9740572 18.333334 5.8426323 18.333334 5.29602L18.333334 4.157279C18.333334 3.7127416 18.325823 3.6104128 18.317965 3.592098C18.304726 3.5611968 18.283287 3.5344348 18.255838 3.514637C18.240473 3.5035496 18.142469 3.4740503 17.709555 3.3777313L10.172505 1.7005508C10.048965 1.6730579 10.02291 1.6679686 10.016175 1.6673768C10.005366 1.6664283 9.9946337 1.6664283 9.9839392 1.6673667Z"/>
</svg>
